<?xml version="1.0" standalone="no"?>
<!DOCTYPE svg PUBLIC "-//W3C//DTD SVG 20010904//EN"
 "http://www.w3.org/TR/2001/REC-SVG-20010904/DTD/svg10.dtd">
<svg version="1.0" xmlns="http://www.w3.org/2000/svg"
 width="5131.000000pt" height="5131.000000pt" viewBox="0 0 5131.000000 5131.000000"
 preserveAspectRatio="xMidYMid meet">
<metadata>
Created by potrace 1.14, written by Peter Selinger 2001-2017
</metadata>
<g transform="translate(0.000000,5131.000000) scale(0.100000,-0.100000)"
fill="#000000" stroke="none">
<path d="M27454 46422 c-10 -15 -397 -516 -472 -611 -15 -19 -36 -46 -47 -61
-24 -32 -110 -144 -197 -256 -35 -45 -74 -96 -88 -114 -14 -18 -168 -218 -343
-444 -176 -226 -383 -494 -460 -595 -78 -101 -155 -200 -172 -221 -16 -20 -70
-89 -119 -153 l-88 -116 -47 4 c-25 2 -95 7 -156 10 -107 6 -156 9 -355 20
-486 26 -1618 26 -2085 0 -44 -2 -134 -7 -200 -10 -66 -3 -154 -8 -195 -10
-168 -11 -223 -15 -292 -20 -40 -3 -98 -7 -128 -10 -30 -2 -91 -6 -135 -10
-79 -7 -81 -7 -83 17 -1 12 -8 68 -17 123 -8 55 -33 222 -56 370 -22 149 -42
281 -44 295 -2 14 -9 61 -15 105 -7 44 -14 88 -16 99 -2 10 -6 44 -10 75 -3
31 -8 58 -9 61 -2 3 -6 29 -10 59 -4 30 -9 63 -11 75 -2 11 -6 38 -9 61 -7 48
-11 76 -20 135 -4 25 -8 56 -10 70 -6 43 -17 114 -22 135 -2 11 -6 36 -8 55
-27 205 -17 200 -112 57 -45 -67 -140 -207 -211 -312 -71 -104 -186 -275 -257
-380 -70 -104 -169 -251 -220 -325 -50 -74 -149 -220 -220 -325 -128 -190
-248 -367 -384 -566 -71 -105 -73 -107 -119 -114 -26 -3 -54 -8 -62 -10 -8 -1
-33 -6 -55 -9 -22 -4 -67 -11 -100 -17 -33 -6 -71 -13 -85 -15 -14 -3 -36 -7
-50 -9 -14 -3 -38 -8 -55 -11 -16 -2 -86 -16 -155 -29 -69 -14 -136 -27 -150
-30 -85 -16 -128 -25 -150 -30 -95 -19 -130 -26 -135 -26 -2 0 -19 -5 -37 -10
-18 -5 -46 -12 -63 -15 -26 -4 -72 -14 -135 -29 -8 -2 -67 -15 -130 -30 -63
-14 -151 -35 -195 -47 -44 -11 -87 -21 -95 -23 -26 -5 -220 -55 -315 -80 -690
-183 -1289 -372 -1985 -625 -115 -42 -503 -191 -522 -201 -18 -10 -15 -16 -78
166 -17 50 -35 101 -40 115 -5 14 -55 156 -110 315 -56 160 -111 315 -122 345
-11 30 -21 60 -23 65 -1 6 -5 17 -8 25 -3 8 -27 76 -52 150 -26 74 -62 178
-80 230 -18 52 -79 226 -135 385 -55 160 -110 315 -122 345 -11 30 -21 60 -22
65 -6 35 -132 375 -139 375 -4 0 -6 -3 -3 -8 2 -4 1 -28 -4 -52 -4 -25 -10
-63 -14 -85 -10 -76 -37 -260 -42 -285 -2 -14 -9 -57 -15 -97 -5 -39 -12 -80
-14 -91 -2 -11 -6 -42 -10 -69 -3 -26 -10 -70 -15 -98 -5 -27 -12 -70 -16 -95
-3 -25 -8 -58 -10 -75 -3 -16 -6 -39 -8 -50 -2 -11 -7 -45 -11 -75 -4 -30 -9
-64 -11 -75 -2 -11 -7 -40 -10 -65 -3 -25 -7 -52 -9 -60 -2 -8 -7 -39 -10 -69
-4 -30 -9 -63 -11 -75 -2 -11 -6 -38 -9 -61 -6 -43 -23 -154 -30 -195 -2 -14
-16 -104 -30 -200 -14 -96 -30 -200 -35 -230 -5 -30 -12 -77 -16 -105 -3 -27
-7 -57 -9 -65 -2 -13 -7 -45 -20 -130 -9 -55 -35 -228 -41 -270 -3 -25 -7 -54
-9 -65 -2 -11 -6 -40 -9 -65 -4 -25 -9 -52 -11 -60 -2 -8 -7 -39 -10 -69 -4
-30 -14 -102 -24 -160 l-17 -104 -209 -107 c-273 -137 -517 -265 -684 -357
-74 -40 -138 -73 -142 -73 -5 0 -9 -4 -9 -10 0 -5 -4 -10 -9 -10 -20 0 -585
-330 -841 -491 -41 -26 -113 -71 -160 -100 -47 -29 -197 -127 -335 -218 -137
-91 -255 -169 -262 -174 -7 -4 -29 19 -60 68 l-50 75 -12 -96 c-13 -99 -21
-148 -24 -150 -1 0 -46 -32 -100 -70 -54 -38 -109 -76 -121 -84 -185 -125
-967 -724 -1126 -864 -20 -17 -55 -47 -79 -66 -24 -19 -60 -49 -80 -66 -20
-17 -88 -75 -151 -129 -63 -53 -119 -102 -125 -109 -5 -6 -26 -24 -45 -40 -74
-61 -286 -252 -499 -451 -289 -270 -740 -723 -986 -989 -49 -54 -103 -113
-120 -131 -16 -17 -44 -47 -60 -66 -17 -19 -53 -59 -80 -89 -28 -31 -76 -86
-108 -122 -33 -37 -64 -65 -70 -63 -7 2 -25 6 -42 8 -16 3 -41 8 -55 11 -159
38 -485 41 -645 6 -22 -5 -57 -11 -77 -14 -61 -9 -326 -100 -413 -142 -267
-127 -476 -295 -690 -555 -119 -146 -275 -454 -310 -617 -3 -12 -7 -31 -10
-43 -2 -11 -6 -28 -9 -37 -3 -9 -8 -35 -11 -57 -3 -23 -8 -52 -11 -65 -10 -45
-12 -264 -3 -330 18 -133 23 -156 52 -253 26 -88 46 -117 82 -117 19 0 26 7
31 28 66 290 166 520 328 752 286 411 721 706 1180 801 54 11 101 18 103 15 3
-3 -2 -12 -11 -21 -9 -9 -46 -56 -83 -103 -37 -48 -70 -89 -73 -92 -19 -18
-368 -485 -496 -665 -202 -283 -424 -612 -593 -880 -62 -99 -121 -191 -130
-205 -8 -14 -22 -37 -31 -51 -8 -14 -67 -113 -131 -220 -151 -252 -166 -278
-184 -314 -9 -16 -25 -46 -37 -65 -118 -195 -468 -873 -641 -1240 -189 -403
-379 -846 -544 -1275 -127 -331 -333 -929 -426 -1240 -20 -66 -46 -151 -57
-190 -12 -38 -23 -77 -25 -85 -2 -8 -18 -63 -34 -123 -17 -59 -31 -114 -31
-122 0 -10 -10 -15 -27 -16 -16 0 -35 -2 -43 -3 -8 -2 -55 -6 -104 -10 -49 -4
-112 -11 -140 -16 -28 -5 -68 -12 -90 -15 -257 -37 -625 -154 -881 -280 -861
-424 -1647 -1258 -1990 -2110 -134 -333 -204 -619 -257 -1045 -14 -115 -18
-673 -6 -825 7 -85 32 -290 43 -345 2 -14 7 -43 10 -65 3 -22 10 -66 15 -97 6
-32 12 -69 15 -83 80 -462 207 -996 390 -1635 150 -524 195 -661 297 -915 399
-985 942 -1596 1728 -1943 215 -95 546 -193 735 -218 28 -3 52 -8 55 -9 5 -3
36 -6 175 -21 17 -1 35 -3 41 -3 11 -1 29 -58 69 -206 7 -27 27 -97 44 -155
17 -58 34 -114 36 -125 3 -11 34 -112 70 -225 36 -113 67 -212 69 -220 6 -22
55 -167 130 -380 94 -271 116 -333 126 -355 5 -11 23 -58 41 -105 59 -154 258
-650 279 -695 5 -11 56 -126 113 -255 57 -129 128 -287 158 -350 68 -145 364
-738 422 -845 24 -44 61 -114 84 -155 65 -121 192 -348 246 -440 27 -47 58
-98 67 -115 157 -276 504 -821 758 -1190 144 -207 483 -677 529 -730 5 -5 46
-59 93 -120 127 -166 444 -560 470 -585 3 -3 39 -45 80 -95 69 -83 109 -130
135 -159 6 -6 55 -63 110 -126 96 -110 123 -140 265 -295 227 -248 360 -386
650 -675 179 -179 370 -365 424 -415 54 -49 110 -101 125 -115 14 -14 69 -63
121 -110 52 -47 99 -90 105 -96 5 -6 82 -73 170 -150 88 -76 162 -141 165
-144 37 -44 722 -595 980 -788 96 -73 180 -135 185 -140 17 -13 271 -196 295
-212 12 -8 28 -19 34 -25 6 -5 38 -29 71 -51 33 -23 80 -56 105 -73 25 -17
144 -98 265 -179 121 -81 221 -150 223 -154 2 -5 8 -8 14 -8 6 0 33 -16 59
-35 27 -19 51 -35 54 -35 2 0 55 -33 117 -73 104 -68 447 -278 528 -324 19
-11 80 -47 135 -80 55 -32 107 -62 115 -66 8 -4 33 -18 55 -31 22 -14 61 -36
86 -49 25 -14 61 -34 80 -44 19 -11 61 -35 94 -53 33 -18 80 -44 105 -58 44
-24 108 -58 265 -142 292 -156 791 -399 1165 -566 328 -147 292 -131 400 -177
19 -9 114 -48 210 -87 96 -39 184 -75 195 -80 11 -5 83 -34 160 -64 1051 -408
2030 -708 3139 -961 265 -61 797 -166 1061 -210 17 -3 40 -7 51 -9 12 -2 39
-7 60 -10 22 -3 50 -8 64 -11 56 -11 87 -16 126 -21 23 -2 51 -6 62 -9 11 -2
42 -7 69 -11 26 -3 57 -8 68 -10 11 -2 40 -7 65 -10 25 -3 52 -7 60 -9 8 -2
40 -7 70 -10 30 -3 66 -8 80 -10 49 -8 195 -27 220 -30 53 -5 146 -16 170 -20
14 -2 50 -6 80 -9 30 -3 69 -8 85 -10 17 -2 62 -7 100 -11 39 -3 84 -8 100
-10 17 -2 62 -7 100 -10 39 -3 88 -8 110 -10 22 -3 70 -7 106 -10 37 -3 88 -7
115 -10 27 -2 83 -7 124 -10 41 -3 104 -7 140 -10 75 -6 248 -16 535 -30 554
-26 1475 -27 2045 0 179 8 337 16 385 20 28 2 97 7 155 10 58 4 125 8 150 10
25 2 83 6 130 10 47 3 105 8 130 10 25 2 79 6 120 10 85 6 166 14 225 20 22 2
65 7 95 10 30 3 75 7 100 10 95 8 246 25 355 40 17 2 57 7 90 11 33 3 68 8 77
9 9 2 48 7 85 10 37 4 71 9 74 11 3 2 30 6 60 9 30 3 65 7 79 10 14 2 45 7 70
10 72 10 166 24 205 31 10 2 37 6 60 9 22 3 63 10 90 15 28 5 68 12 90 15 23
3 52 8 65 10 14 3 66 12 115 20 50 8 101 17 115 20 14 3 52 10 85 16 61 10
543 106 580 115 11 2 33 7 49 10 16 2 32 6 35 8 3 2 22 7 41 10 39 6 33 5 190
41 63 15 126 29 140 32 105 20 853 216 1080 284 761 226 1348 428 2005 691
133 53 176 71 300 123 17 7 59 25 95 40 36 14 79 32 95 40 17 7 113 50 215 95
102 45 208 92 235 105 28 13 84 39 125 58 148 69 355 168 370 177 8 6 26 15
40 21 57 24 441 221 630 322 410 220 902 504 1235 715 44 28 107 67 140 88 73
45 580 382 685 455 223 154 685 492 827 603 28 23 66 52 84 66 33 25 212 166
246 194 10 8 72 59 138 112 66 54 122 100 125 103 3 3 39 33 80 66 41 33 80
65 85 71 6 6 41 37 80 70 38 32 75 64 81 69 6 6 37 33 69 60 32 28 63 55 69
61 6 5 49 44 96 84 47 41 94 84 106 95 11 11 70 65 129 120 60 55 141 129 180
165 113 104 749 743 881 885 130 139 140 150 243 264 36 40 75 83 86 95 27 31
191 219 249 286 36 42 190 223 208 245 9 11 62 76 118 145 56 69 109 134 118
145 39 47 197 252 334 434 81 108 151 201 156 206 4 6 19 26 32 45 13 19 28
40 33 45 34 40 269 378 472 680 56 83 106 149 111 148 5 -1 90 -30 189 -64 99
-34 405 -138 680 -231 275 -93 579 -196 675 -229 96 -33 182 -61 190 -64 8 -2
161 -53 340 -114 179 -61 329 -111 333 -111 8 0 -10 18 -74 74 -29 25 -129
114 -333 296 -22 19 -47 42 -56 50 -9 8 -52 47 -95 85 -44 39 -96 84 -115 102
-19 17 -45 40 -58 51 -48 42 -223 198 -327 291 -22 20 -119 106 -215 191 -96
85 -177 157 -180 160 -3 3 -43 39 -90 80 -47 41 -90 80 -96 85 -6 6 -44 39
-84 75 -41 36 -94 83 -118 106 l-45 41 73 129 c197 346 492 917 649 1254 30
63 71 151 91 195 108 231 305 698 400 945 28 74 56 144 61 155 9 20 78 202 83
220 18 62 31 80 57 79 29 -1 252 -24 282 -29 12 -2 54 -6 92 -10 39 -3 84 -8
100 -10 17 -2 57 -7 90 -10 33 -3 78 -8 100 -10 95 -11 134 -15 195 -20 36 -4
76 -8 90 -11 14 -2 57 -6 95 -9 39 -3 79 -7 90 -10 11 -2 49 -7 85 -10 36 -3
85 -7 110 -10 25 -3 59 -7 75 -9 17 -2 64 -7 105 -11 41 -3 86 -8 100 -10 22
-4 250 -29 370 -41 25 -2 63 -6 85 -9 22 -2 67 -7 100 -10 33 -3 76 -8 95 -10
19 -3 60 -7 90 -10 108 -11 136 -14 190 -20 67 -8 75 -18 -125 141 -82 65
-155 123 -161 129 -6 5 -27 24 -48 40 -68 54 -420 336 -461 370 -22 18 -98 79
-170 136 -71 57 -132 106 -135 109 -3 3 -25 21 -50 40 -25 19 -47 37 -50 40
-3 4 -180 147 -395 319 -214 172 -410 329 -434 349 -24 21 -51 42 -60 48 -13
10 -11 24 14 120 16 60 30 114 31 119 1 6 25 102 53 215 42 172 62 257 116
500 4 16 64 312 71 345 2 11 7 36 11 55 9 42 6 29 23 128 7 45 17 82 22 82 4
0 25 -15 45 -33 188 -167 564 -436 858 -612 130 -78 147 -88 325 -185 92 -50
472 -239 595 -295 33 -15 87 -40 120 -55 33 -15 89 -41 125 -57 36 -17 130
-58 210 -92 80 -34 154 -66 165 -71 121 -58 946 -351 1055 -375 8 -2 87 -24
175 -50 139 -40 389 -107 450 -120 11 -3 49 -12 85 -21 36 -9 76 -18 90 -21
14 -2 61 -12 105 -22 44 -10 96 -21 115 -25 19 -3 46 -8 60 -11 14 -3 50 -9
80 -15 30 -6 66 -12 80 -15 13 -3 42 -7 65 -10 22 -3 47 -8 55 -10 8 -2 38 -7
65 -10 28 -3 61 -7 75 -10 14 -3 50 -7 80 -11 30 -3 66 -7 80 -9 107 -15 293
-26 445 -26 483 -1 751 118 840 371 32 92 23 232 -22 329 -56 122 -178 256
-419 461 -45 39 -222 186 -246 205 -27 22 -294 251 -319 275 -282 266 -444
444 -613 674 -287 391 -490 791 -664 1311 -30 87 -123 420 -136 485 -3 14 -23
111 -45 215 -22 105 -43 213 -46 240 -4 28 -8 57 -10 65 -3 8 -7 33 -10 55 -3
22 -8 51 -10 65 -3 14 -7 43 -10 65 -3 22 -7 54 -10 70 -2 17 -7 53 -10 80 -3
28 -10 84 -15 125 -5 41 -12 106 -15 143 -4 37 -8 76 -10 85 -1 9 -6 62 -10
117 -3 55 -8 114 -10 130 -4 27 -12 160 -20 305 -2 30 -7 127 -10 215 -4 88
-8 187 -10 220 -17 371 -27 3644 -12 3975 13 293 16 353 22 445 11 175 15 230
20 275 2 25 7 77 10 115 3 39 8 89 10 113 16 141 25 217 30 257 2 17 7 53 10
80 3 28 8 61 10 75 3 14 7 43 10 65 5 35 14 90 29 175 11 70 43 235 50 265 2
11 12 56 21 100 9 44 25 116 37 160 11 44 21 87 23 95 19 85 114 389 169 542
83 230 279 654 347 749 10 15 19 30 19 35 0 4 11 22 25 40 14 18 25 35 25 39
0 15 238 351 281 395 8 8 36 42 63 75 49 60 324 338 381 385 193 161 360 281
584 420 115 71 271 159 486 275 50 27 112 61 138 77 26 15 50 28 53 28 3 0 17
8 32 18 15 10 59 40 98 65 171 113 246 234 239 387 -5 125 -86 240 -213 302
-36 18 -70 34 -76 35 -6 1 -43 11 -83 22 -125 33 -253 45 -483 45 -153 0 -385
-10 -428 -19 -10 -2 -54 -6 -98 -9 -43 -4 -90 -8 -104 -11 -14 -2 -45 -7 -70
-10 -25 -3 -72 -10 -105 -15 -33 -5 -82 -12 -110 -15 -27 -4 -57 -8 -65 -10
-8 -3 -32 -7 -54 -11 -21 -3 -48 -8 -60 -10 -11 -2 -37 -7 -56 -10 -19 -3 -43
-7 -52 -10 -10 -3 -30 -7 -45 -10 -16 -2 -39 -7 -53 -10 -14 -3 -34 -8 -45
-10 -81 -16 -238 -52 -380 -89 -563 -143 -1171 -357 -1685 -592 -130 -59 -487
-237 -512 -255 -16 -11 -28 -16 -28 -13 0 3 -13 -3 -29 -14 -16 -12 -37 -24
-47 -28 -116 -48 -722 -432 -935 -593 -51 -39 -95 -70 -98 -70 -3 0 -17 -10
-31 -22 -14 -13 -52 -43 -85 -68 -54 -41 -112 -87 -245 -198 -286 -236 -635
-575 -897 -867 -266 -298 -589 -722 -789 -1037 l-62 -97 -52 127 c-28 70 -58
141 -65 157 -115 260 -123 283 -106 302 9 10 48 56 86 103 39 46 77 92 85 101
8 9 24 27 35 40 11 13 91 109 178 213 87 103 156 190 153 193 -2 2 -51 -5
-108 -16 -56 -11 -121 -24 -143 -27 -22 -3 -43 -8 -46 -9 -3 -2 -32 -9 -65
-14 -65 -11 -76 -13 -219 -42 -55 -11 -113 -22 -130 -24 -16 -3 -42 -8 -56
-11 -19 -4 -28 0 -36 18 -6 13 -68 138 -137 278 -142 286 -188 375 -349 670
-157 287 -349 615 -540 920 -119 192 -497 767 -527 803 -6 7 -74 102 -152 212
-78 109 -147 206 -154 215 -7 8 -70 92 -140 185 -275 366 -706 897 -935 1150
-60 67 -87 96 -149 166 -232 260 -439 477 -746 784 -211 210 -508 496 -553
533 l-24 19 29 39 c16 21 39 50 52 64 12 14 22 28 22 32 0 3 6 13 13 20 7 7
60 76 118 153 57 77 106 142 110 145 3 3 68 88 144 190 77 102 143 190 148
195 11 14 192 251 228 300 16 22 35 47 42 55 7 9 80 105 162 214 210 278 558
736 679 894 55 74 108 143 116 155 15 22 15 22 -20 -1 -19 -12 -66 -40 -105
-62 -38 -23 -144 -86 -235 -141 -91 -56 -181 -110 -200 -121 -19 -11 -46 -28
-60 -38 -14 -9 -32 -20 -40 -23 -8 -4 -31 -17 -51 -30 -20 -12 -117 -71 -215
-130 -98 -60 -379 -229 -624 -377 -245 -148 -593 -358 -773 -467 -180 -109
-340 -206 -355 -215 -15 -10 -43 -26 -61 -36 l-35 -19 -146 117 c-136 110
-432 340 -494 385 -15 11 -58 43 -94 71 -214 164 -900 644 -920 644 -6 0 -12
3 -14 8 -5 13 -358 240 -648 417 -80 48 -161 98 -180 110 -37 23 -82 50 -140
83 -19 11 -91 52 -160 92 -69 40 -145 84 -170 98 -25 14 -76 42 -113 63 -38
22 -70 39 -72 39 -1 0 -51 27 -110 60 -59 33 -111 60 -116 60 -18 0 -6 33 82
228 16 34 29 65 29 67 0 2 11 28 25 57 69 148 325 734 325 744 0 6 6 17 14 23
8 7 17 23 20 37 4 14 19 53 35 87 15 34 45 100 66 147 20 47 50 113 66 148 16
34 29 64 29 67 0 2 11 28 24 57 13 29 45 100 71 157 25 57 54 122 65 145 10
22 35 79 55 126 47 110 47 109 95 213 22 49 40 91 40 93 0 2 12 28 26 59 15
31 25 57 23 59 -2 2 -85 -46 -184 -106 -99 -60 -187 -112 -195 -115 -8 -3 -22
-12 -30 -19 -8 -7 -26 -19 -40 -26 -14 -7 -81 -47 -150 -88 -69 -41 -133 -79
-143 -85 -10 -5 -145 -86 -300 -180 -155 -93 -288 -171 -294 -173 -7 -2 -13
-8 -13 -13 0 -5 -5 -9 -12 -9 -7 0 -28 -11 -47 -24 -20 -13 -346 -209 -724
-435 l-688 -411 -111 45 c-61 25 -130 54 -154 65 -23 11 -47 20 -52 20 -5 0
-22 6 -38 14 -39 19 -284 115 -479 187 -242 90 -244 91 -250 90 -3 -1 -18 5
-33 13 -31 16 -803 276 -892 300 -30 8 -116 34 -190 56 -489 149 -1047 294
-1560 406 -63 13 -133 29 -155 34 -22 5 -56 12 -75 15 -19 3 -51 10 -70 15
-19 5 -51 12 -70 15 -19 3 -78 14 -130 25 -109 22 -456 86 -515 94 -22 4 -65
11 -95 16 -103 18 -161 27 -220 35 -25 3 -52 8 -60 10 -8 2 -40 7 -70 10 -30
4 -57 8 -60 10 -3 2 -32 6 -65 10 -33 3 -67 7 -75 8 -23 4 -41 17 -35 27 3 5
15 53 25 107 11 54 26 128 34 164 8 36 16 79 19 95 3 16 8 40 11 54 3 14 8 36
10 50 2 14 9 45 15 70 5 25 12 56 15 70 2 14 10 50 16 80 6 30 13 69 16 85 3
17 9 46 14 65 5 19 11 49 13 65 3 17 8 41 11 55 3 14 8 39 11 55 3 17 8 41 11
55 3 14 28 133 55 265 27 132 52 252 54 266 3 15 26 127 51 250 25 123 48 235
50 249 2 14 7 39 11 55 4 17 8 35 9 40 1 6 11 55 23 110 11 55 22 111 25 125
3 14 16 83 31 154 14 70 24 130 23 132 -2 2 -9 -5 -14 -14z m15541 -14284
c-21 -24 -41 -47 -46 -52 -4 -4 -17 10 -28 32 l-20 40 37 10 c20 5 50 10 66
11 l28 1 -37 -42z"/>
</g>
</svg>
